<svg xmlns="http://www.w3.org/2000/svg" xmlns:xlink="http://www.w3.org/1999/xlink" width="298.984" height="188.823" viewBox="0 0 298.984 188.823"><defs><clipPath id="a"><rect width="298.984" height="188.823" fill="#fff"/></clipPath></defs><g transform="translate(0 0)"><g transform="translate(0 0)" clip-path="url(#a)"><path d="M70.808,78.677c-6.813-4.824-11.76-9.706-11.76-15.738H21.17c0,10.849-4.947,15.738-11.059,15.738H0V188.823H196.692V78.677H70.808Zm-11.76,31.469H23.6V94.408H62.939v12.664Zm66.577,61.261c-22.443,0-40.7-18.024-40.7-40.177s18.255-39.252,40.7-39.252,40.7,17.091,40.7,39.252-18.255,40.177-40.7,40.177M147.5,131.23a21.881,21.881,0,1,1-21.879-21.6,21.766,21.766,0,0,1,21.879,21.6M298.977,63.691,250,188.527l-37.574-15.066V152.183l26.1,10.683,34.456-87.841L143.865,25.662,131.9,62.939H110.356L132.387,0Z" transform="translate(0 -0.003)" fill="#fff"/></g></g></svg>